# Blender v2.82 (sub 7) OBJ File: 'boxing-ring-ropes-extensions.blend'
# www.blender.org
mtllib boxing-ring-ropes-extensions.mtl
o Cylinder.001_Cylinder.016
v -0.848647 0.081065 0.000000
v 0.848647 0.081065 -0.000000
v -0.848647 0.057321 -0.057321
v 0.848647 0.057321 -0.057321
v -0.848647 0.000000 -0.081065
v 0.848647 -0.000000 -0.081065
v -0.848647 -0.057321 -0.057321
v 0.848647 -0.057321 -0.057321
v -0.848647 -0.081065 0.000000
v 0.848647 -0.081065 -0.000000
v -0.848647 -0.057321 0.057321
v 0.848647 -0.057321 0.057321
v -0.848647 0.000000 0.081065
v 0.848647 -0.000000 0.081065
v -0.848647 0.057321 0.057321
v 0.848647 0.057321 0.057321
v -0.848646 2.376872 0.000000
v 0.848647 2.376872 0.000000
v -0.848646 2.353129 -0.057321
v 0.848647 2.353129 -0.057321
v -0.848646 2.295808 -0.081065
v 0.848647 2.295808 -0.081065
v -0.848646 2.238486 -0.057321
v 0.848647 2.238486 -0.057321
v -0.848646 2.214743 0.000000
v 0.848647 2.214743 0.000000
v -0.848646 2.238486 0.057322
v 0.848647 2.238486 0.057321
v -0.848646 2.295808 0.081065
v 0.848647 2.295808 0.081065
v -0.848646 2.353129 0.057322
v 0.848647 2.353129 0.057321
v -0.848646 1.617714 0.000000
v 0.848647 1.617714 0.000000
v -0.848646 1.593971 -0.057321
v 0.848647 1.593971 -0.057321
v -0.848646 1.536649 -0.081065
v 0.848647 1.536649 -0.081065
v -0.848646 1.479328 -0.057321
v 0.848647 1.479328 -0.057321
v -0.848646 1.455585 0.000000
v 0.848647 1.455585 0.000000
v -0.848646 1.479328 0.057322
v 0.848647 1.479328 0.057321
v -0.848646 1.536649 0.081065
v 0.848647 1.536649 0.081065
v -0.848646 1.593971 0.057322
v 0.848647 1.593971 0.057321
v -0.848646 0.817663 0.000000
v 0.848647 0.817663 0.000000
v -0.848646 0.793919 -0.057321
v 0.848647 0.793919 -0.057321
v -0.848646 0.736598 -0.081065
v 0.848647 0.736598 -0.081065
v -0.848646 0.679277 -0.057321
v 0.848647 0.679276 -0.057321
v -0.848646 0.655533 0.000000
v 0.848647 0.655533 0.000000
v -0.848646 0.679277 0.057322
v 0.848647 0.679276 0.057321
v -0.848646 0.736598 0.081065
v 0.848647 0.736598 0.081065
v -0.848646 0.793919 0.057322
v 0.848647 0.793919 0.057321
vt 0.781049 0.209572
vt 0.781049 0.000000
vt 0.861929 0.000000
vt 0.861929 0.209572
vt 1.000000 0.209572
vt 1.000000 0.419143
vt 0.942809 0.419143
vt 0.942809 0.209572
vt 0.861929 0.419143
vt 0.861929 0.209572
vt 0.723858 0.838286
vt 0.723858 0.628715
vt 0.781049 0.628715
vt 0.781049 0.838286
vt 0.861929 0.628715
vt 0.861929 0.838286
vt 1.000000 0.419143
vt 1.000000 0.628715
vt 0.942809 0.628715
vt 0.942809 0.419143
vt 0.333333 0.387238
vt 0.390524 0.443948
vt 0.390524 0.524147
vt 0.333333 0.580857
vt 0.252453 0.580857
vt 0.195262 0.524147
vt 0.195262 0.443948
vt 0.252453 0.387238
vt 0.861929 0.628715
vt 0.861929 0.419143
vt 0.723858 0.209572
vt 0.723858 0.000000
vt 0.390524 0.250329
vt 0.447715 0.193619
vt 0.528595 0.193619
vt 0.585786 0.250329
vt 0.585786 0.330528
vt 0.528595 0.387238
vt 0.447715 0.387238
vt 0.390524 0.330528
vt 0.471405 0.790429
vt 0.471405 0.580857
vt 0.552285 0.580857
vt 0.552285 0.790428
vt 0.138071 0.580857
vt 0.138071 0.790428
vt 0.080880 0.790428
vt 0.080880 0.580857
vt 0.000000 0.790428
vt 0.000000 0.580857
vt 1.000000 0.000000
vt 1.000000 0.209571
vt 0.942809 0.209572
vt 0.942809 0.000000
vt 0.861929 0.209571
vt 0.861929 0.000000
vt 0.585786 0.209572
vt 0.585786 0.000000
vt 0.642977 0.000000
vt 0.642977 0.209572
vt 0.138071 0.387238
vt 0.057191 0.387238
vt 0.000000 0.330528
vt 0.000000 0.250329
vt 0.057191 0.193619
vt 0.138071 0.193619
vt 0.195262 0.250329
vt 0.195262 0.330528
vt 0.723858 0.000000
vt 0.723858 0.209572
vt 0.414214 0.790428
vt 0.414214 0.580857
vt 0.000000 0.056710
vt 0.057191 0.000000
vt 0.138071 0.000000
vt 0.195262 0.056710
vt 0.195262 0.136909
vt 0.138071 0.193619
vt 0.057191 0.193619
vt 0.000000 0.136909
vt 0.666666 0.596810
vt 0.666666 0.806381
vt 0.585786 0.806381
vt 0.585786 0.596810
vt 0.723858 0.387238
vt 0.723857 0.596810
vt 0.666667 0.596810
vt 0.666667 0.387238
vt 0.585786 0.596810
vt 0.585786 0.387238
vt 0.276143 0.790428
vt 0.276143 0.580857
vt 0.333334 0.580857
vt 0.333334 0.790428
vt 0.414214 0.580857
vt 0.414214 0.790429
vt 0.276143 0.580857
vt 0.276143 0.790428
vt 0.218951 0.790428
vt 0.218951 0.580857
vt 0.390524 0.056710
vt 0.390524 0.136909
vt 0.333333 0.193619
vt 0.252453 0.193619
vt 0.195262 0.136909
vt 0.195262 0.056710
vt 0.252453 0.000000
vt 0.333333 0.000000
vt 0.138071 0.790428
vt 0.138071 0.580857
vt 0.723857 0.596810
vt 0.723857 0.806381
vt 0.000000 0.443948
vt 0.057191 0.387238
vt 0.138071 0.387238
vt 0.195262 0.443948
vt 0.195262 0.524147
vt 0.138071 0.580857
vt 0.057191 0.580857
vt 0.000000 0.524147
vt 0.781049 0.419143
vt 0.781049 0.209572
vt 0.861929 0.209572
vt 0.861929 0.419143
vt 0.138071 0.790428
vt 0.138071 1.000000
vt 0.080880 1.000000
vt 0.080880 0.790428
vt 0.000000 1.000000
vt 0.000000 0.790428
vt 0.723858 0.628715
vt 0.723858 0.419143
vt 0.781049 0.419143
vt 0.781049 0.628715
vt 0.861929 0.419143
vt 0.861929 0.628715
vt 1.000000 0.628715
vt 1.000000 0.838287
vt 0.942809 0.838286
vt 0.942809 0.628715
vt 0.528595 0.580857
vt 0.447715 0.580857
vt 0.390524 0.524147
vt 0.390524 0.443948
vt 0.447715 0.387238
vt 0.528595 0.387238
vt 0.585786 0.443948
vt 0.585786 0.524147
vt 0.861929 0.838286
vt 0.861929 0.628715
vt 0.723858 0.419143
vt 0.723858 0.209572
vt 0.447715 0.193619
vt 0.390524 0.136909
vt 0.390524 0.056710
vt 0.447715 0.000000
vt 0.528595 0.000000
vt 0.585786 0.056710
vt 0.585786 0.136909
vt 0.528595 0.193619
vn -0.6302 0.7764 0.0000
vn 0.6302 0.7764 0.0000
vn 0.6302 0.5490 -0.5490
vn -0.6302 0.5490 -0.5490
vn 0.6302 0.0000 -0.7764
vn -0.6302 0.0000 -0.7764
vn 0.6302 -0.5490 -0.5490
vn -0.6302 -0.5490 -0.5490
vn 0.6302 -0.7764 0.0000
vn -0.6302 -0.7764 0.0000
vn 0.6302 -0.5490 0.5490
vn -0.6302 -0.5490 0.5490
vn 0.6302 0.0000 0.7764
vn -0.6302 0.0000 0.7764
vn 0.6302 0.5490 0.5490
vn -0.6302 0.5490 0.5490
usemtl Material.004
s 1
f 1/1/1 2/2/2 4/3/3 3/4/4
f 3/5/4 4/6/3 6/7/5 5/8/6
f 5/8/6 6/7/5 8/9/7 7/10/8
f 7/11/8 8/12/7 10/13/9 9/14/10
f 9/14/10 10/13/9 12/15/11 11/16/12
f 11/17/12 12/18/11 14/19/13 13/20/14
f 4/21/3 2/22/2 16/23/15 14/24/13 12/25/11 10/26/9 8/27/7 6/28/5
f 13/20/14 14/19/13 16/29/15 15/30/16
f 15/31/16 16/32/15 2/2/2 1/1/1
f 1/33/1 3/34/4 5/35/6 7/36/8 9/37/10 11/38/12 13/39/14 15/40/16
f 17/41/1 18/42/2 20/43/3 19/44/4
f 19/45/4 20/46/3 22/47/5 21/48/6
f 21/48/6 22/47/5 24/49/7 23/50/8
f 23/51/8 24/52/7 26/53/9 25/54/10
f 25/54/10 26/53/9 28/55/11 27/56/12
f 27/57/12 28/58/11 30/59/13 29/60/14
f 20/61/3 18/62/2 32/63/15 30/64/13 28/65/11 26/66/9 24/67/7 22/68/5
f 29/60/14 30/59/13 32/69/15 31/70/16
f 31/71/16 32/72/15 18/42/2 17/41/1
f 17/73/1 19/74/4 21/75/6 23/76/8 25/77/10 27/78/12 29/79/14 31/80/16
f 33/81/1 34/82/2 36/83/3 35/84/4
f 35/85/4 36/86/3 38/87/5 37/88/6
f 37/88/6 38/87/5 40/89/7 39/90/8
f 39/91/8 40/92/7 42/93/9 41/94/10
f 41/94/10 42/93/9 44/95/11 43/96/12
f 43/97/12 44/98/11 46/99/13 45/100/14
f 36/101/3 34/102/2 48/103/15 46/104/13 44/105/11 42/106/9 40/107/7 38/108/5
f 45/100/14 46/99/13 48/109/15 47/110/16
f 47/111/16 48/112/15 34/82/2 33/81/1
f 33/113/1 35/114/4 37/115/6 39/116/8 41/117/10 43/118/12 45/119/14 47/120/16
f 49/121/1 50/122/2 52/123/3 51/124/4
f 51/125/4 52/126/3 54/127/5 53/128/6
f 53/128/6 54/127/5 56/129/7 55/130/8
f 55/131/8 56/132/7 58/133/9 57/134/10
f 57/134/10 58/133/9 60/135/11 59/136/12
f 59/137/12 60/138/11 62/139/13 61/140/14
f 52/141/3 50/142/2 64/143/15 62/144/13 60/145/11 58/146/9 56/147/7 54/148/5
f 61/140/14 62/139/13 64/149/15 63/150/16
f 63/151/16 64/152/15 50/122/2 49/121/1
f 49/153/1 51/154/4 53/155/6 55/156/8 57/157/10 59/158/12 61/159/14 63/160/16
